<svg xmlns="http://www.w3.org/2000/svg" viewBox="0 0 700 360" width="700" height="360" font-family="'Segoe UI', system-ui, -apple-system, sans-serif">
  <defs>
    <marker id="arrow-bp" markerWidth="10" markerHeight="7" refX="9" refY="3.5" orient="auto">
      <polygon points="0 0, 10 3.5, 0 7" fill="#666"/>
    </marker>
  </defs>

  <!-- Row 1: CLAUDE.md -->
  <rect x="260" y="20" width="160" height="44" rx="8" fill="#dae8fc" stroke="#6c8ebf" stroke-width="2"/>
  <text x="340" y="48" text-anchor="middle" font-size="14" font-weight="bold" fill="#333">CLAUDE.md</text>

  <!-- Row 2: AGENTS.md -->
  <rect x="260" y="110" width="160" height="44" rx="8" fill="#dae8fc" stroke="#6c8ebf" stroke-width="2"/>
  <text x="340" y="138" text-anchor="middle" font-size="14" font-weight="bold" fill="#333">AGENTS.md</text>

  <!-- Row 3: ARCHITECTURE.md and MANIFEST.md -->
  <rect x="50" y="200" width="195" height="44" rx="8" fill="#d5e8d4" stroke="#82b366" stroke-width="2"/>
  <text x="147" y="228" text-anchor="middle" font-size="13" fill="#333">ARCHITECTURE.md</text>

  <rect x="370" y="200" width="225" height="44" rx="8" fill="#d5e8d4" stroke="#82b366" stroke-width="2"/>
  <text x="482" y="228" text-anchor="middle" font-size="13" fill="#333">.context/MANIFEST.md</text>

  <!-- Row 4: subdirectories -->
  <rect x="310" y="294" width="100" height="40" rx="8" fill="#fff2cc" stroke="#d6b656" stroke-width="2"/>
  <text x="360" y="319" text-anchor="middle" font-size="13" fill="#333">domain/</text>

  <rect x="430" y="294" width="110" height="40" rx="8" fill="#fff2cc" stroke="#d6b656" stroke-width="2"/>
  <text x="485" y="319" text-anchor="middle" font-size="13" fill="#333">decisions/</text>

  <rect x="560" y="294" width="120" height="40" rx="8" fill="#fff2cc" stroke="#d6b656" stroke-width="2"/>
  <text x="620" y="319" text-anchor="middle" font-size="13" fill="#333">constraints/</text>

  <!-- Arrows -->
  <!-- CLAUDE.md → AGENTS.md -->
  <line x1="340" y1="64" x2="340" y2="108" stroke="#666" stroke-width="2" marker-end="url(#arrow-bp)"/>

  <!-- AGENTS.md → ARCHITECTURE.md -->
  <path d="M 300 154 Q 230 177 190 198" stroke="#666" stroke-width="2" fill="none" marker-end="url(#arrow-bp)"/>

  <!-- AGENTS.md → MANIFEST.md -->
  <path d="M 380 154 Q 430 177 450 198" stroke="#666" stroke-width="2" fill="none" marker-end="url(#arrow-bp)"/>

  <!-- MANIFEST.md → domain/ -->
  <path d="M 435 244 Q 400 269 380 292" stroke="#666" stroke-width="2" fill="none" marker-end="url(#arrow-bp)"/>

  <!-- MANIFEST.md → decisions/ -->
  <line x1="482" y1="244" x2="482" y2="292" stroke="#666" stroke-width="2" marker-end="url(#arrow-bp)"/>

  <!-- MANIFEST.md → constraints/ -->
  <path d="M 530 244 Q 570 269 595 292" stroke="#666" stroke-width="2" fill="none" marker-end="url(#arrow-bp)"/>
</svg>
